<svg width="32" height="32" viewBox="0 0 32 32" fill="none" xmlns="http://www.w3.org/2000/svg">
<g opacity="0.5">
<path d="M26.6667 10.6667H5.33333C4.59695 10.6667 4 11.2636 4 12V14.6667C4 15.4031 4.59695 16 5.33333 16H26.6667C27.403 16 28 15.4031 28 14.6667V12C28 11.2636 27.403 10.6667 26.6667 10.6667Z" stroke="black" stroke-width="2" stroke-linecap="round" stroke-linejoin="round"/>
<path d="M16 10.6667V28" stroke="black" stroke-width="2" stroke-linecap="round" stroke-linejoin="round"/>
<path d="M25.3334 16V25.3333C25.3334 26.0406 25.0524 26.7189 24.5523 27.219C24.0522 27.719 23.3739 28 22.6667 28H9.33335C8.62611 28 7.94783 27.719 7.44774 27.219C6.94764 26.7189 6.66669 26.0406 6.66669 25.3333V16" stroke="black" stroke-width="2" stroke-linecap="round" stroke-linejoin="round"/>
<path d="M10 10.6666C9.11597 10.6666 8.26812 10.3154 7.643 9.69033C7.01788 9.06521 6.66669 8.21736 6.66669 7.33331C6.66669 6.44925 7.01788 5.6014 7.643 4.97628C8.26812 4.35116 9.11597 3.99997 10 3.99997C11.2863 3.97756 12.5467 4.60165 13.617 5.79085C14.6873 6.98005 15.5177 8.67918 16 10.6666C16.4823 8.67918 17.3128 6.98005 18.383 5.79085C19.4533 4.60165 20.7138 3.97756 22 3.99997C22.8841 3.99997 23.7319 4.35116 24.357 4.97628C24.9822 5.6014 25.3334 6.44925 25.3334 7.33331C25.3334 8.21736 24.9822 9.06521 24.357 9.69033C23.7319 10.3154 22.8841 10.6666 22 10.6666" stroke="black" stroke-width="2" stroke-linecap="round" stroke-linejoin="round"/>
</g>
</svg>
